<?xml version="1.0" encoding="UTF-8" standalone="no"?>
<svg
   xmlns:dc="http://purl.org/dc/elements/1.1/"
   xmlns:cc="http://creativecommons.org/ns#"
   xmlns:rdf="http://www.w3.org/1999/02/22-rdf-syntax-ns#"
   xmlns:svg="http://www.w3.org/2000/svg"
   xmlns="http://www.w3.org/2000/svg"
   xmlns:sodipodi="http://sodipodi.sourceforge.net/DTD/sodipodi-0.dtd"
   xmlns:inkscape="http://www.inkscape.org/namespaces/inkscape"
   width="16"
   height="16"
   viewBox="0 0 16 16"
   fill="none"
   version="1.1"
   id="svg4"
   sodipodi:docname="symbol-variable.svg"
   inkscape:export-filename="./32/symbol-variable.png"
   inkscape:export-xdpi="192"
   inkscape:export-ydpi="192"
   inkscape:version="0.92.4 (5da689c313, 2019-01-14)">
  <metadata
     id="metadata10">
    <rdf:RDF>
      <cc:Work
         rdf:about="">
        <dc:format>image/svg+xml</dc:format>
        <dc:type
           rdf:resource="http://purl.org/dc/dcmitype/StillImage" />
      </cc:Work>
    </rdf:RDF>
  </metadata>
  <defs
     id="defs8" />
  <sodipodi:namedview
     pagecolor="#ffffff"
     bordercolor="#666666"
     borderopacity="1"
     objecttolerance="10"
     gridtolerance="10"
     guidetolerance="10"
     inkscape:pageopacity="0"
     inkscape:pageshadow="2"
     inkscape:window-width="1866"
     inkscape:window-height="1025"
     id="namedview6"
     showgrid="false"
     inkscape:zoom="14.75"
     inkscape:cx="8.2033898"
     inkscape:cy="8"
     inkscape:window-x="54"
     inkscape:window-y="27"
     inkscape:window-maximized="1"
     inkscape:current-layer="svg4" />
  <path
     fill-rule="evenodd"
     clip-rule="evenodd"
     d="M2 5H4V4H1.5L1 4.5V12.5L1.5 13H4V12H2V5ZM14.5 4H12V5H14V12H12V13H14.5L15 12.5V4.5L14.5 4ZM11.76 6.56995L12 7V9.51001L11.7 9.95996L7.19995 11.96H6.73999L4.23999 10.46L4 10.03V7.53003L4.30005 7.06995L8.80005 5.06995H9.26001L11.76 6.56995ZM5 9.70996L6.5 10.61V9.28003L5 8.38V9.70996ZM5.57996 7.56006L7.03003 8.43005L10.42 6.93005L8.96997 6.06006L5.57996 7.56006ZM7.53003 10.73L11.03 9.17004V7.77002L7.53003 9.31995V10.73Z"
     fill="#007ACC"
     id="path2" />
</svg>
