<?xml version="1.0" encoding="UTF-8" standalone="no"?>
<svg
   xmlns:dc="http://purl.org/dc/elements/1.1/"
   xmlns:cc="http://creativecommons.org/ns#"
   xmlns:rdf="http://www.w3.org/1999/02/22-rdf-syntax-ns#"
   xmlns:svg="http://www.w3.org/2000/svg"
   xmlns="http://www.w3.org/2000/svg"
   xmlns:sodipodi="http://sodipodi.sourceforge.net/DTD/sodipodi-0.dtd"
   xmlns:inkscape="http://www.inkscape.org/namespaces/inkscape"
   height="16"
   viewBox="0 0 16 16"
   width="16"
   version="1.1"
   id="svg4"
   sodipodi:docname="ToolMove.svg"
   inkscape:export-filename="./ToolMove.png"
   inkscape:export-xdpi="96"
   inkscape:export-ydpi="96"
   inkscape:version="0.92.5 (2060ec1f9f, 2020-04-08)">
  <metadata
     id="metadata10">
    <rdf:RDF>
      <cc:Work
         rdf:about="">
        <dc:format>image/svg+xml</dc:format>
        <dc:type
           rdf:resource="http://purl.org/dc/dcmitype/StillImage" />
      </cc:Work>
    </rdf:RDF>
  </metadata>
  <defs
     id="defs8" />
  <sodipodi:namedview
     pagecolor="#ffffff"
     bordercolor="#666666"
     borderopacity="1"
     objecttolerance="10"
     gridtolerance="10"
     guidetolerance="10"
     inkscape:pageopacity="0"
     inkscape:pageshadow="2"
     inkscape:window-width="1864"
     inkscape:window-height="1016"
     id="namedview6"
     showgrid="false"
     inkscape:zoom="14.75"
     inkscape:cx="-16.745763"
     inkscape:cy="8"
     inkscape:window-x="56"
     inkscape:window-y="27"
     inkscape:window-maximized="1"
     inkscape:current-layer="svg4" />
  <path
     d="m7.9844 1.002a1.0001 1.0001 0 0 0 -.69141.29102l-2 2 1.4141 1.4141 1.293-1.293 1.293 1.293 1.4141-1.4141-2-2a1.0001 1.0001 0 0 0 -.72266-.29102zm-4.6914 4.291-2 2a1.0001 1.0001 0 0 0 0 1.4141l2 2 1.4141-1.4141-1.293-1.293 1.293-1.293-1.4141-1.4141zm9.4141 0-1.4141 1.4141 1.293 1.293-1.293 1.293 1.4141 1.4141 2-2a1.0001 1.0001 0 0 0 0-1.4141l-2-2zm-4.707.70703a2 2 0 0 0 -2 2 2 2 0 0 0 2 2 2 2 0 0 0 2-2 2 2 0 0 0 -2-2zm-1.293 5.293-1.4141 1.4141 2 2a1.0001 1.0001 0 0 0 1.4141 0l2-2-1.4141-1.4141-1.293 1.293-1.293-1.293z"
     fill="#e0e0e0"
     fill-opacity=".99608"
     id="path2" />
</svg>
