<?xml version="1.0" encoding="UTF-8" standalone="no"?>
<svg
   xmlns:dc="http://purl.org/dc/elements/1.1/"
   xmlns:cc="http://creativecommons.org/ns#"
   xmlns:rdf="http://www.w3.org/1999/02/22-rdf-syntax-ns#"
   xmlns:svg="http://www.w3.org/2000/svg"
   xmlns="http://www.w3.org/2000/svg"
   xmlns:sodipodi="http://sodipodi.sourceforge.net/DTD/sodipodi-0.dtd"
   xmlns:inkscape="http://www.inkscape.org/namespaces/inkscape"
   height="16"
   viewBox="0 0 16 16"
   width="16"
   version="1.1"
   id="svg4"
   sodipodi:docname="ToolRotate.svg"
   inkscape:export-filename="./ToolRotate.png"
   inkscape:export-xdpi="96"
   inkscape:export-ydpi="96"
   inkscape:version="0.92.5 (2060ec1f9f, 2020-04-08)">
  <metadata
     id="metadata10">
    <rdf:RDF>
      <cc:Work
         rdf:about="">
        <dc:format>image/svg+xml</dc:format>
        <dc:type
           rdf:resource="http://purl.org/dc/dcmitype/StillImage" />
      </cc:Work>
    </rdf:RDF>
  </metadata>
  <defs
     id="defs8" />
  <sodipodi:namedview
     pagecolor="#ffffff"
     bordercolor="#666666"
     borderopacity="1"
     objecttolerance="10"
     gridtolerance="10"
     guidetolerance="10"
     inkscape:pageopacity="0"
     inkscape:pageshadow="2"
     inkscape:window-width="1864"
     inkscape:window-height="1016"
     id="namedview6"
     showgrid="false"
     inkscape:zoom="14.75"
     inkscape:cx="-29.118644"
     inkscape:cy="8"
     inkscape:window-x="56"
     inkscape:window-y="27"
     inkscape:window-maximized="1"
     inkscape:current-layer="svg4" />
  <path
     d="m8.0879 1.002a7 7 0 0 0 -.30469.0019531 7 7 0 0 0 -.69727.056641 7 7 0 0 0 -5.9512 5.5742 7 7 0 0 0 1.9707 6.3652h-1.1055v2h4a1.0001 1.0001 0 0 0 .9707-1.2422l-1-4-1.9414.48633.28125 1.1211a5 5 0 0 1 -1.3105-3.3652 5 5 0 0 1 5-5 5 5 0 0 1 5 5 5 5 0 0 1 -1.4668 3.5332l1.416 1.416a7 7 0 0 0 1.3281-8.0449 7 7 0 0 0 -6.1895-3.9023zm-.087891 4.998a2 2 0 0 0 -2 2 2 2 0 0 0 2 2 2 2 0 0 0 2-2 2 2 0 0 0 -2-2z"
     fill="#e0e0e0"
     fill-opacity=".99608"
     id="path2" />
</svg>
